<svg width="130" height="160" style="stroke:#fff;stroke-width:3" xmlns="http://www.w3.org/2000/svg"><clipPath id="b"><path id="a" d="M129.7 22.98C127.32 37.42 99.08 48.62 65 48.65a158 158 0 0 1-11.35-.5v30.02c3.74.3 7.54.46 11.35.48 35.88 0 64.97-12.34 65-27.58v-28.1Z"/></clipPath><clipPath id="f"><path id="e" d="M129.7 63.98c-2.1 12.31-23.2 22.54-51.67 25.04v30.01c30.18-2.62 51.88-13.88 51.97-26.96v-28.1Z"/></clipPath><clipPath id="j"><path id="i" d="M129.7 104.32a65 27.6 0 0 1-26.3 20.29v30.02a65 27.6 0 0 0 26.6-22.21v-28.1z"/></clipPath><clipPath id="n"><ellipse id="m" cx="65.01" cy="19.47" rx="53" ry="19.47"/></clipPath><clipPath id="d"><path id="c" d="M0 22.98v28.1c.1 11.8 17.83 22.26 44.14 26.05V47.11C19.44 43.53 2.18 34.03.3 22.98Z"/></clipPath><clipPath id="h"><path id="g" d="M0 63.98v28.1c.04 15.23 29.13 27.57 65 27.57 1.17-.02 2.34-.05 3.51-.1v-30c-1.17.05-2.34.08-3.51.1C30.92 89.62 2.68 78.42.3 63.98Z"/></clipPath><clipPath id="l"><path id="k" d="M0 104.33v28.1A65 27.6 0 0 0 65 160a65 27.6 0 0 0 28.88-2.94v-30.02A65 27.6 0 0 1 65 130 65 27.6 0 0 1 .3 104.33Z"/></clipPath><use href="#a" clip-path="url(#b)" style="fill:#28a197"/><use href="#c" clip-path="url(#d)" style="fill:#28a197"/><use href="#e" clip-path="url(#f)" style="fill:#801650"/><use href="#g" clip-path="url(#h)" style="fill:#801650"/><use href="#i" clip-path="url(#j)" style="fill:#f46a25"/><use href="#k" clip-path="url(#l)" style="fill:#f46a25"/><use href="#m" clip-path="url(#n)" style="fill:#12436d"/></svg>