<svg width="130" height="160" xml:space="preserve" xmlns="http://www.w3.org/2000/svg"><path style="opacity:1;fill:#12436d;fill-opacity:1;stroke:#000;stroke-width:0" d="M46.97 0a37.58 11.73 0 0 0-4.73.1 37.58 11.73 0 0 0-1.53.08 37.58 11.73 0 0 0-3.11.2 37.58 11.73 0 0 0-1.78.17 37.58 11.73 0 0 0-.02 0 37.58 11.73 0 0 0-2.7.28 37.58 11.73 0 0 0-1.83.26 37.58 11.73 0 0 0-2.44.38 37.58 11.73 0 0 0-1.76.33 37.58 11.73 0 0 0-2.25.47 37.58 11.73 0 0 0-1.62.4 37.58 11.73 0 0 0-2.02.55 37.58 11.73 0 0 0-1.47.46 37.58 11.73 0 0 0-1.76.62 37.58 11.73 0 0 0-1.28.51 37.58 11.73 0 0 0-1.5.7 37.58 11.73 0 0 0-1.06.55 37.58 11.73 0 0 0-1.22.77 37.58 11.73 0 0 0-.8.57 37.58 11.73 0 0 0-.93.85 37.58 11.73 0 0 0-.56.55 37.58 11.73 0 0 0-.62.97 37.58 11.73 0 0 0-.28.48 37.58 11.73 0 0 0-.3 1.48 37.58 11.73 0 0 0 37.57 11.73 37.58 11.73 0 0 0 37.58-11.73 37.58 11.73 0 0 0-.04-.51 37.58 11.73 0 0 0-.04-.18 37.58 11.73 0 0 0-.07-.34 37.58 11.73 0 0 0-.06-.19 37.58 11.73 0 0 0-.37-.82 37.58 11.73 0 0 0-.14-.22 37.58 11.73 0 0 0-.18-.28 37.58 11.73 0 0 0-.17-.23 37.58 11.73 0 0 0-.69-.77 37.58 11.73 0 0 0-.23-.22 37.58 11.73 0 0 0-.3-.26 37.58 11.73 0 0 0-.26-.22 37.58 11.73 0 0 0-1-.73 37.58 11.73 0 0 0-.32-.21 37.58 11.73 0 0 0-.41-.25 37.58 11.73 0 0 0-.01-.01 37.58 11.73 0 0 0-.34-.2 37.58 11.73 0 0 0-1.31-.69 37.58 11.73 0 0 0-.39-.18 37.58 11.73 0 0 0-2.59-1.07 37.58 11.73 0 0 0-.4-.16 37.58 11.73 0 0 0-2.28-.74 37.58 11.73 0 0 0-.24-.07 37.58 11.73 0 0 0-.97-.27 37.58 11.73 0 0 0-.01 0 37.58 11.73 0 0 0-.39-.1 37.58 11.73 0 0 0-2.16-.54 37.58 11.73 0 0 0-.58-.13 37.58 11.73 0 0 0-.76-.17 37.58 11.73 0 0 0-.61-.12 37.58 11.73 0 0 0-2.2-.41 37.58 11.73 0 0 0-.01 0 37.58 11.73 0 0 0-.65-.1 37.58 11.73 0 0 0-.82-.14 37.58 11.73 0 0 0-.65-.1 37.58 11.73 0 0 0-2.35-.3 37.58 11.73 0 0 0-.69-.09 37.58 11.73 0 0 0-4.02-.38 37.58 11.73 0 0 0-.73-.05 37.58 11.73 0 0 0-4.14-.21 37.58 11.73 0 0 0-.04 0 37.58 11.73 0 0 0-.69-.03 37.58 11.73 0 0 0-.95-.02 37.58 11.73 0 0 0-.7-.01A37.58 11.73 0 0 0 46.97 0z" transform="scale(1.38386 1.57496)"/><path style="opacity:1;fill:#28a197;fill-opacity:1;stroke:#000;stroke-width:0" d="M0 13.32v17.84a46.97 17.52 0 0 0 46.97 17.51 46.97 17.52 0 0 0 46.97-17.51V13.32h-.22a46.97 17.52 0 0 1-46.75 16.3A46.97 17.52 0 0 1 .22 13.32zm0 66721.17v17.84a46.97 17.52 0 0 0 46.97 17.5 46.97 17.52 0 0 0 46.97-17.5v-17.84h-.22a46.97 17.52 0 0 1-46.75 16.3 46.97 17.52 0 0 1-46.75-16.3z" transform="scale(1.38386 1.57496)"/><path style="opacity:1;fill:#801650;fill-opacity:1;stroke:#000;stroke-width:0" d="M0 39.99v17.84a46.97 17.52 0 0 0 46.97 17.5 46.97 17.52 0 0 0 46.97-17.5V39.99h-.22a46.97 17.52 0 0 1-46.75 16.3A46.97 17.52 0 0 1 .22 39.99z" transform="scale(1.38386 1.57496)"/><path style="opacity:1;fill:#f46a25;fill-opacity:1;stroke:#000;stroke-width:0" d="M0 66.24v17.84a46.97 17.52 0 0 0 46.97 17.51 46.97 17.52 0 0 0 46.97-17.51V66.24h-.22a46.97 17.52 0 0 1-46.75 16.3A46.97 17.52 0 0 1 .22 66.24z" transform="scale(1.38386 1.57496)"/></svg>