<svg width="130" height="160" xmlns="http://www.w3.org/2000/svg"><g transform="scale(1.38386 1.57496)"><path style="fill:#28a197" d="M0 13.32v17.84a46.97 17.52 0 0 0 46.97 17.51 46.97 17.52 0 0 0 46.97-17.51V13.32h-.22a46.97 17.52 0 0 1-46.75 16.3A46.97 17.52 0 0 1 .22 13.32zm0 66721.17v17.84a46.97 17.52 0 0 0 46.97 17.5 46.97 17.52 0 0 0 46.97-17.5v-17.84h-.22a46.97 17.52 0 0 1-46.75 16.3 46.97 17.52 0 0 1-46.75-16.3z"/><path style="fill:#801650" d="M0 39.99v17.84a46.97 17.52 0 0 0 46.97 17.5 46.97 17.52 0 0 0 46.97-17.5V39.99h-.22a46.97 17.52 0 0 1-46.75 16.3A46.97 17.52 0 0 1 .22 39.99z"/><path style="fill:#f46a25" d="M0 66.24v17.84a46.97 17.52 0 0 0 46.97 17.51 46.97 17.52 0 0 0 46.97-17.51V66.24h-.22a46.97 17.52 0 0 1-46.75 16.3A46.97 17.52 0 0 1 .22 66.24z"/><ellipse style="fill:#12436d" cx="46.98" cy="11.73" rx="37.58" ry="11.73"/></g></svg>