<svg xmlns="http://www.w3.org/2000/svg" width="130" height="160"><clipPath id="a"><path id="d" d="M129.7 20.98A65 27.6 0 0 1 65 46.65a65 27.6 0 0 1-11.35-.5v30.02a65 27.6 0 0 0 11.35.48 65 27.6 0 0 0 65-27.58v-28.1z"/></clipPath><clipPath id="b"><path id="e" d="M129.7 62.98a65 27.6 0 0 1-51.67 25.04v30.01A65 27.6 0 0 0 130 91.07v-28.1z"/></clipPath><clipPath id="c"><path id="f" d="M129.7 104.32a65 27.6 0 0 1-26.3 20.29v30.02a65 27.6 0 0 0 26.6-22.21v-28.1z"/></clipPath><use href="#d" clip-path="url(#a)" style="fill:#28a197;fill-opacity:.575129;stroke:#28a197;stroke-width:3"/><path d="M0 20.98v28.1a65 27.6 0 0 0 44.14 26.05V45.11A65 27.6 0 0 1 .3 20.98Z" style="fill:#28a197"/><use href="#e" clip-path="url(#b)" style="fill:#801650;fill-opacity:.430052;stroke:#801650;stroke-width:3"/><path d="M0 62.98v28.1a65 27.6 0 0 0 65 27.57 65 27.6 0 0 0 3.51-.1v-30a65 27.6 0 0 1-3.51.1A65 27.6 0 0 1 .3 62.98Z" style="fill:#801650"/><use href="#f" clip-path="url(#c)" style="fill:#f46a25;fill-opacity:.507772;stroke:#f46a25;stroke-width:3"/><path d="M0 104.33v28.1A65 27.6 0 0 0 65 160a65 27.6 0 0 0 28.88-2.94v-30.02A65 27.6 0 0 1 65 130 65 27.6 0 0 1 .3 104.33Z" style="fill:#f46a25"/><ellipse cx="65.01" cy="18.47" rx="52" ry="18.47" style="fill:#12436d"/></svg>