<svg width="130" height="160" xml:space="preserve" xmlns="http://www.w3.org/2000/svg"><path style="opacity:1;fill:#12436d;fill-opacity:1;stroke:#000;stroke-width:0" d="M46.97 0a37.58 11.73 0 0 0-4.73.1 37.58 11.73 0 0 0-1.53.08 37.58 11.73 0 0 0-3.11.2 37.58 11.73 0 0 0-1.78.17 37.58 11.73 0 0 0-.02 0 37.58 11.73 0 0 0-2.7.28 37.58 11.73 0 0 0-1.83.26 37.58 11.73 0 0 0-2.44.38 37.58 11.73 0 0 0-1.76.33 37.58 11.73 0 0 0-2.25.47 37.58 11.73 0 0 0-1.62.4 37.58 11.73 0 0 0-2.02.55 37.58 11.73 0 0 0-1.47.46 37.58 11.73 0 0 0-1.76.62 37.58 11.73 0 0 0-1.28.51 37.58 11.73 0 0 0-1.5.7 37.58 11.73 0 0 0-1.06.55 37.58 11.73 0 0 0-1.22.77 37.58 11.73 0 0 0-.8.57 37.58 11.73 0 0 0-.93.85 37.58 11.73 0 0 0-.56.55 37.58 11.73 0 0 0-.62.97 37.58 11.73 0 0 0-.28.48 37.58 11.73 0 0 0-.3 1.48 37.58 11.73 0 0 0 37.57 11.73 37.58 11.73 0 0 0 37.58-11.73 37.58 11.73 0 0 0-.04-.51 37.58 11.73 0 0 0-.04-.18 37.58 11.73 0 0 0-.07-.34 37.58 11.73 0 0 0-.06-.19 37.58 11.73 0 0 0-.37-.82 37.58 11.73 0 0 0-.14-.22 37.58 11.73 0 0 0-.18-.28 37.58 11.73 0 0 0-.17-.23 37.58 11.73 0 0 0-.69-.77 37.58 11.73 0 0 0-.23-.22 37.58 11.73 0 0 0-.3-.26 37.58 11.73 0 0 0-.26-.22 37.58 11.73 0 0 0-1-.73 37.58 11.73 0 0 0-.32-.21 37.58 11.73 0 0 0-.41-.25 37.58 11.73 0 0 0-.01-.01 37.58 11.73 0 0 0-.34-.2 37.58 11.73 0 0 0-1.31-.69 37.58 11.73 0 0 0-.39-.18 37.58 11.73 0 0 0-2.59-1.07 37.58 11.73 0 0 0-.4-.16 37.58 11.73 0 0 0-2.28-.74 37.58 11.73 0 0 0-.24-.07 37.58 11.73 0 0 0-.97-.27 37.58 11.73 0 0 0-.01 0 37.58 11.73 0 0 0-.39-.1 37.58 11.73 0 0 0-2.16-.54 37.58 11.73 0 0 0-.58-.13 37.58 11.73 0 0 0-.76-.17 37.58 11.73 0 0 0-.61-.12 37.58 11.73 0 0 0-2.2-.41 37.58 11.73 0 0 0-.01 0 37.58 11.73 0 0 0-.65-.1 37.58 11.73 0 0 0-.82-.14 37.58 11.73 0 0 0-.65-.1 37.58 11.73 0 0 0-2.35-.3 37.58 11.73 0 0 0-.69-.09 37.58 11.73 0 0 0-4.02-.38 37.58 11.73 0 0 0-.73-.05 37.58 11.73 0 0 0-4.14-.21 37.58 11.73 0 0 0-.04 0 37.58 11.73 0 0 0-.69-.03 37.58 11.73 0 0 0-.95-.02 37.58 11.73 0 0 0-.7-.01A37.58 11.73 0 0 0 46.97 0z" transform="scale(1.38386 1.57496)"/><path style="opacity:1;fill:#28a197;fill-opacity:1;stroke:#000;stroke-width:0" d="M0 13.32v17.84a46.97 17.52 0 0 0 46.97 17.51 46.97 17.52 0 0 0 46.97-17.51V13.32h-.22a46.97 17.52 0 0 1-46.75 16.3A46.97 17.52 0 0 1 .22 13.32z" transform="scale(1.38386 1.57496)"/><path style="opacity:1;fill:#801650;fill-opacity:1;stroke:#000;stroke-width:0" d="M49 21.07a46.97 17.52 0 0 1 .88.02 46.97 17.52 0 0 0-.88-.02zm2.06.05a46.97 17.52 0 0 1 .9.03 46.97 17.52 0 0 0-.9-.03zm-10 .07a46.97 17.52 0 0 0-1.91.14 46.97 17.52 0 0 1 1.91-.14zm12.04.01a46.97 17.52 0 0 1 .9.05 46.97 17.52 0 0 0-.9-.05zm2.03.12a46.97 17.52 0 0 1 .9.06 46.97 17.52 0 0 0-.9-.06zm2.02.15a46.97 17.52 0 0 1 .9.08 46.97 17.52 0 0 0-.9-.08zm-21.9.14a46.97 17.52 0 0 0-2.24.26 46.97 17.52 0 0 1 2.25-.26zm23.9.04a46.97 17.52 0 0 1 .89.1 46.97 17.52 0 0 0-.89-.1zm1.97.22a46.97 17.52 0 0 1 .89.1 46.97 17.52 0 0 0-.9-.1zm1.94.24a46.97 17.52 0 0 1 .89.13 46.97 17.52 0 0 0-.89-.13zm-33.42.2a46.97 17.52 0 0 0-2.3.38 46.97 17.52 0 0 1 2.3-.39zm35.35.08a46.97 17.52 0 0 1 .84.14 46.97 17.52 0 0 0-.84-.14zm1.9.32a46.97 17.52 0 0 1 .8.14 46.97 17.52 0 0 0-.8-.14zm1.83.33a46.97 17.52 0 0 1 .81.17 46.97 17.52 0 0 0-.81-.17zm-44.43.2a46.97 17.52 0 0 0-2.2.5 46.97 17.52 0 0 1 2.2-.5zm46.22.17a46.97 17.52 0 0 1 .82.18 46.97 17.52 0 0 0-.82-.18zm1.73.4a46.97 17.52 0 0 1 .82.2 46.97 17.52 0 0 0-.82-.2zm1.75.43a46.97 17.52 0 0 1 .74.2 46.97 17.52 0 0 0-.74-.2zm-54.7.2a46.97 17.52 0 0 0-2.03.6 46.97 17.52 0 0 1 2.03-.6zm56.37.26a46.97 17.52 0 0 1 .7.2 46.97 17.52 0 0 0-.7-.2zm1.7.52a46.97 17.52 0 0 1 .57.17 46.97 17.52 0 0 0-.56-.17zm1.79.59a46.97 17.52 0 0 1 .3.1 46.97 17.52 0 0 0-.3-.1zm-64.41.05a46.97 17.52 0 0 0-1.84.69 46.97 17.52 0 0 1 1.84-.7zm66.16.6a46.97 17.52 0 0 1 .27.1 46.97 17.52 0 0 0-.27-.1zm1.38.56a46.97 17.52 0 0 1 .52.23 46.97 17.52 0 0 0-.52-.23zm-71.58.46a46.97 17.52 0 0 0-1.6.76 46.97 17.52 0 0 1 1.6-.76zm72.9.12a46.97 17.52 0 0 1 .52.26 46.97 17.52 0 0 0-.52-.26zm1.26.62a46.97 17.52 0 0 1 .49.25 46.97 17.52 0 0 0-.5-.25zm1.17.62a46.97 17.52 0 0 1 .48.28 46.97 17.52 0 0 0-.48-.28zm-78.8.45a46.97 17.52 0 0 0-1.33.82 46.97 17.52 0 0 1 1.33-.82zm79.9.2a46.97 17.52 0 0 1 .46.29 46.97 17.52 0 0 0-.46-.3zm1.03.66a46.97 17.52 0 0 1 .43.3 46.97 17.52 0 0 0-.43-.3zm.94.68a46.97 17.52 0 0 1 .41.32 46.97 17.52 0 0 0-.4-.32zm-84.72.42a46.97 17.52 0 0 0-1.02.85 46.97 17.52 0 0 1 1.02-.85zm85.59.27a46.97 17.52 0 0 1 .37.33 46.97 17.52 0 0 0-.37-.33zm.79.72a46.97 17.52 0 0 1 .32.32 46.97 17.52 0 0 0-.32-.32zm.7.72a46.97 17.52 0 0 1 .28.32 46.97 17.52 0 0 0-.28-.32zm-89.25.4a46.97 17.52 0 0 0-.7.84 46.97 17.52 0 0 1 .7-.83zm89.87.34a46.97 17.52 0 0 1 .24.32 46.97 17.52 0 0 0-.24-.32zm.53.74a46.97 17.52 0 0 1 .2.33 46.97 17.52 0 0 0-.2-.33zm.44.75a46.97 17.52 0 0 1 .17.33 46.97 17.52 0 0 0-.17-.33zm-92.31.46a46.97 17.52 0 0 0-.35.71 46.97 17.52 0 0 1 .35-.71zm92.66.3a46.97 17.52 0 0 1 .13.33 46.97 17.52 0 0 0-.13-.33zm.27.8a46.97 17.52 0 0 1 .08.28 46.97 17.52 0 0 0-.08-.28zm.18.79a46.97 17.52 0 0 1 .04.26 46.97 17.52 0 0 0-.04-.26zM0 38.57v19.05a46.97 17.52 0 0 0 46.97 17.51 46.97 17.52 0 0 0 46.97-17.51V38.57a46.97 17.52 0 0 1-46.97 17.51A46.97 17.52 0 0 1 0 38.57Z" transform="scale(1.38386 1.57496)"/><path style="opacity:1;fill:#f46a25;fill-opacity:1;stroke:#000;stroke-width:0" d="M49 47.53a46.97 17.52 0 0 1 .88.02 46.97 17.52 0 0 0-.88-.02zm2.06.05a46.97 17.52 0 0 1 .9.03 46.97 17.52 0 0 0-.9-.03zm-10 .07a46.97 17.52 0 0 0-1.91.13 46.97 17.52 0 0 1 1.91-.13zm12.04 0a46.97 17.52 0 0 1 .9.06 46.97 17.52 0 0 0-.9-.05zm2.03.13a46.97 17.52 0 0 1 .9.06 46.97 17.52 0 0 0-.9-.06zm2.02.15a46.97 17.52 0 0 1 .9.08 46.97 17.52 0 0 0-.9-.08zm-21.9.14a46.97 17.52 0 0 0-2.24.26 46.97 17.52 0 0 1 2.25-.26zm23.9.04a46.97 17.52 0 0 1 .89.1 46.97 17.52 0 0 0-.89-.1zm1.97.21a46.97 17.52 0 0 1 .89.11 46.97 17.52 0 0 0-.9-.1zm1.94.25a46.97 17.52 0 0 1 .89.13 46.97 17.52 0 0 0-.89-.13zm-33.42.19a46.97 17.52 0 0 0-2.3.39 46.97 17.52 0 0 1 2.3-.4zm35.35.1a46.97 17.52 0 0 1 .84.13 46.97 17.52 0 0 0-.84-.14zm1.9.3a46.97 17.52 0 0 1 .8.15 46.97 17.52 0 0 0-.8-.15zm1.83.34a46.97 17.52 0 0 1 .81.16 46.97 17.52 0 0 0-.81-.16zm-44.43.2a46.97 17.52 0 0 0-2.2.5 46.97 17.52 0 0 1 2.2-.5zm46.22.17a46.97 17.52 0 0 1 .82.18 46.97 17.52 0 0 0-.82-.18zm1.73.4a46.97 17.52 0 0 1 .82.2 46.97 17.52 0 0 0-.82-.2zm1.75.43a46.97 17.52 0 0 1 .74.2 46.97 17.52 0 0 0-.74-.2zm-54.7.2a46.97 17.52 0 0 0-2.03.6 46.97 17.52 0 0 1 2.03-.6zm56.37.26a46.97 17.52 0 0 1 .7.2 46.97 17.52 0 0 0-.7-.2zm1.7.52a46.97 17.52 0 0 1 .57.17 46.97 17.52 0 0 0-.56-.17zm1.79.59a46.97 17.52 0 0 1 .3.1 46.97 17.52 0 0 0-.3-.1zm-64.41.05a46.97 17.52 0 0 0-1.84.69 46.97 17.52 0 0 1 1.84-.7zm66.16.6a46.97 17.52 0 0 1 .27.1 46.97 17.52 0 0 0-.27-.1zm1.38.56a46.97 17.52 0 0 1 .52.22 46.97 17.52 0 0 0-.52-.22zm-71.58.46a46.97 17.52 0 0 0-1.6.76 46.97 17.52 0 0 1 1.6-.76zm72.9.12a46.97 17.52 0 0 1 .52.26 46.97 17.52 0 0 0-.52-.26zm1.26.61a46.97 17.52 0 0 1 .49.26 46.97 17.52 0 0 0-.5-.26zm1.17.63a46.97 17.52 0 0 1 .48.28 46.97 17.52 0 0 0-.48-.28zm-78.8.44a46.97 17.52 0 0 0-1.33.82 46.97 17.52 0 0 1 1.33-.82zm79.9.2a46.97 17.52 0 0 1 .46.3 46.97 17.52 0 0 0-.46-.3zm1.03.67a46.97 17.52 0 0 1 .43.3 46.97 17.52 0 0 0-.43-.3zm.94.68a46.97 17.52 0 0 1 .41.32 46.97 17.52 0 0 0-.4-.32zm-84.72.42a46.97 17.52 0 0 0-1.02.85 46.97 17.52 0 0 1 1.02-.85zm85.59.27a46.97 17.52 0 0 1 .37.33 46.97 17.52 0 0 0-.37-.33zm.79.71a46.97 17.52 0 0 1 .32.33 46.97 17.52 0 0 0-.32-.33zm.7.73a46.97 17.52 0 0 1 .28.32 46.97 17.52 0 0 0-.28-.32zm-89.25.4a46.97 17.52 0 0 0-.7.84 46.97 17.52 0 0 1 .7-.84zm89.87.34a46.97 17.52 0 0 1 .24.32 46.97 17.52 0 0 0-.24-.32zm.53.74a46.97 17.52 0 0 1 .2.33 46.97 17.52 0 0 0-.2-.33zm.44.75a46.97 17.52 0 0 1 .17.33 46.97 17.52 0 0 0-.17-.33zm-92.31.46a46.97 17.52 0 0 0-.35.71 46.97 17.52 0 0 1 .35-.71zm92.66.3a46.97 17.52 0 0 1 .13.32 46.97 17.52 0 0 0-.13-.32zm.27.8a46.97 17.52 0 0 1 .08.28 46.97 17.52 0 0 0-.08-.28zm.18.79a46.97 17.52 0 0 1 .04.26 46.97 17.52 0 0 0-.04-.26zM0 65.02v19.05a46.97 17.52 0 0 0 46.97 17.52 46.97 17.52 0 0 0 46.97-17.52V65.02a46.97 17.52 0 0 1-46.97 17.52A46.97 17.52 0 0 1 0 65.02Z" transform="scale(1.38386 1.57496)"/></svg>