<svg width="130" height="160" xml:space="preserve" xmlns="http://www.w3.org/2000/svg"><path style="fill:#fff" d="M129.7 20.98A65 27.6 0 0 1 65 46.65a65 27.6 0 0 1-11.35-.49v30.02a65 27.6 0 0 0 11.35.47 65 27.6 0 0 0 65-27.57v-28.1Z"/><path style="fill:#fff" d="M0 20.98v28.1a65 27.6 0 0 0 44.14 26.05V45.11A65 27.6 0 0 1 .3 20.98Z"/><path style="fill:#fff;" d="M168.36 83.18a65 27.6 0 0 1-51.67 25.04v30.01a65 27.6 0 0 0 51.97-26.96v-28.1Z" transform="translate(-38.66 -20.2)"/><path style="fill:#fff" d="M0 62.98v28.1a65 27.6 0 0 0 65 27.57 65 27.6 0 0 0 3.51-.1v-30a65 27.6 0 0 1-3.51.1A65 27.6 0 0 1 .3 62.98Z"/><path style="fill:#fff;" d="M168.36 124.52a65 27.6 0 0 1-26.3 20.29v30.02a65 27.6 0 0 0 26.6-22.21v-28.1z" transform="translate(-38.66 -20.2)"/><path style="fill:#fff" d="M0 104.33v28.1A65 27.6 0 0 0 65 160a65 27.6 0 0 0 28.88-2.94v-30.02A65 27.6 0 0 1 65 130 65 27.6 0 0 1 .3 104.33z"/><ellipse style="fill:#fff" cx="65.01" cy="18.47" rx="52" ry="18.47"/></svg>