<svg width="180" height="180" xmlns="http://www.w3.org/2000/svg"><path style="fill:#28a197" d="M157.5 32c-2.4 14.4-30.6 25.6-64.7 25.6-3.8 0-7.6-.1-11.4-.5v30c3.8.4 7.6.5 11.4.6 35.9 0 65-12.4 65-27.6V32ZM27.8 32v28a65 27.6 0 0 0 44.1 26.1v-30A65 27.6 0 0 1 28.1 32z"/><path style="fill:#801650" d="M157.5 74c-2.1 12.3-23.2 22.5-51.7 25v30c30.2-2.6 52-13.8 52-27V74ZM27.8 74v28a65 27.6 0 0 0 65 27.7 65 27.6 0 0 0 3.5-.1v-30a65 27.6 0 0 1-3.5 0A65 27.6 0 0 1 28.1 74z"/><path style="fill:#f46a25" d="M157.5 115.3c-1.3 8-11 15.5-26.3 20.3v30c16.7-5.2 26.6-13.4 26.6-22.2v-28Zm-129.7 0v28.1a65 27.6 0 0 0 65 27.6 65 27.6 0 0 0 28.9-3v-30a65 27.6 0 0 1-28.9 3 65 27.6 0 0 1-64.7-25.7z"/><ellipse cx="92.8" cy="29.5" rx="52" ry="18.5" style="fill:#12436d"/></svg>