<svg xmlns="http://www.w3.org/2000/svg" width="130" height="160" style="stroke:#fff;stroke-width:3"><clipPath id="a"><path id="b" d="M129.7 20.98A65 27.6 0 0 1 65 46.65a65 27.6 0 0 1-11.35-.5v30.02a65 27.6 0 0 0 11.35.48 65 27.6 0 0 0 65-27.58v-28.1z"/></clipPath><clipPath id="c"><path id="d" d="M129.7 62.98a65 27.6 0 0 1-51.67 25.04v30.01A65 27.6 0 0 0 130 91.07v-28.1z"/></clipPath><clipPath id="e"><path id="f" d="M129.7 104.32a65 27.6 0 0 1-26.3 20.29v30.02a65 27.6 0 0 0 26.6-22.21v-28.1z"/></clipPath><clipPath id="g"><ellipse id="h" cx="65.01" cy="18.47" rx="52" ry="18.47"/></clipPath><clipPath id="i"><path id="j" d="M0 20.98v28.1a65 27.6 0 0 0 44.14 26.05V45.11A65 27.6 0 0 1 .3 20.98Z"/></clipPath><clipPath id="k"><path id="l" d="M0 62.98v28.1a65 27.6 0 0 0 65 27.57 65 27.6 0 0 0 3.51-.1v-30a65 27.6 0 0 1-3.51.1A65 27.6 0 0 1 .3 62.98Z"/></clipPath><clipPath id="m"><path id="n" d="M0 104.33v28.1A65 27.6 0 0 0 65 160a65 27.6 0 0 0 28.88-2.94v-30.02A65 27.6 0 0 1 65 130 65 27.6 0 0 1 .3 104.33Z"/></clipPath><use href="#b" clip-path="url(#a)" style="fill:#28a197"/><use href="#j" clip-path="url(#i)" style="fill:#28a197"/><use href="#d" clip-path="url(#c)" style="fill:#801650"/><use href="#l" clip-path="url(#k)" style="fill:#801650"/><use href="#f" clip-path="url(#e)" style="fill:#f46a25"/><use href="#n" clip-path="url(#m)" style="fill:#f46a25"/><use href="#h" clip-path="url(#g)" style="fill:#12436d"/></svg>