<svg xmlns="http://www.w3.org/2000/svg" width="130" height="160" style="fill:#fff"><path d="M129.695 20.978A65 27.593 0 0 1 65 46.65a65 27.593 0 0 1-11.354-.488v30.013A65 27.593 0 0 0 65 76.654a65 27.593 0 0 0 65-27.578V20.978Z"/><path d="M0 20.978v28.098A65 27.593 0 0 0 44.137 75.13V45.115A65 27.593 0 0 1 .305 20.978Z"/><path d="M129.695 62.978a65 27.593 0 0 1-51.672 25.049v30.008A65 27.593 0 0 0 130 91.075V62.979Z"/><path d="M0 62.978v28.098a65 27.593 0 0 0 65 27.578 65 27.593 0 0 0 3.514-.098V88.554A65 27.593 0 0 1 65 88.65 65 27.593 0 0 1 .305 62.978Z"/><path d="M129.695 104.326a65 27.593 0 0 1-26.306 20.283v30.025A65 27.593 0 0 0 130 132.422v-28.096z"/><path d="M0 104.326v28.096A65 27.593 0 0 0 65 160a65 27.593 0 0 0 28.879-2.938v-30.021A65 27.593 0 0 1 65 129.998 65 27.593 0 0 1 .305 104.326z"/><ellipse cx="65.006" cy="18.474" rx="51.999" ry="18.474"/></svg>