<svg width="130" height="160" xmlns="http://www.w3.org/2000/svg"><defs><clipPath id="a"><path d="M168.36 41.18a65 27.6 0 0 1-64.7 25.67 65 27.6 0 0 1-11.35-.5v30.02a65 27.6 0 0 0 11.35.48 65 27.6 0 0 0 65-27.58v-28.1Z"/></clipPath><clipPath id="b"><path d="M168.36 83.18a65 27.6 0 0 1-51.67 25.04v30.01a65 27.6 0 0 0 51.97-26.96v-28.1Z"/></clipPath><clipPath id="c"><path d="M168.36 124.52a65 27.6 0 0 1-26.3 20.29v30.02a65 27.6 0 0 0 26.6-22.21v-28.1z"/></clipPath></defs><path style="fill:#28a197;fill-opacity:.57512951;stroke:#28a197;stroke-width:3" d="M168.36 41.18a65 27.6 0 0 1-64.7 25.67 65 27.6 0 0 1-11.35-.5v30.02a65 27.6 0 0 0 11.35.48 65 27.6 0 0 0 65-27.58v-28.1Z" clip-path="url(#a)" transform="translate(-38.66 -20.2)"/><path style="fill:#28a197" d="M0 20.98v28.1a65 27.6 0 0 0 44.14 26.05V45.11A65 27.6 0 0 1 .3 20.98Z"/><path style="fill:#801650;fill-opacity:.4300518;stroke:#801650;stroke-width:3" d="M168.36 83.18a65 27.6 0 0 1-51.67 25.04v30.01a65 27.6 0 0 0 51.97-26.96v-28.1Z" clip-path="url(#b)" transform="translate(-38.66 -20.2)"/><path style="fill:#801650" d="M0 62.98v28.1a65 27.6 0 0 0 65 27.57 65 27.6 0 0 0 3.51-.1v-30a65 27.6 0 0 1-3.51.1A65 27.6 0 0 1 .3 62.98Z"/><path style="fill:#f46a25;fill-opacity:.507772;stroke:#f46a25;stroke-width:3" d="M168.36 124.52a65 27.6 0 0 1-26.3 20.29v30.02a65 27.6 0 0 0 26.6-22.21v-28.1z" clip-path="url(#c)" transform="translate(-38.66 -20.2)"/><path style="fill:#f46a25" d="M0 104.33v28.1A65 27.6 0 0 0 65 160a65 27.6 0 0 0 28.88-2.94v-30.02A65 27.6 0 0 1 65 130 65 27.6 0 0 1 .3 104.33z"/><ellipse style="fill:#12436d" cx="65.01" cy="18.47" rx="52" ry="18.47"/></svg>